<svg width="1890" height="627" viewBox="0 0 1890 627" fill="none" xmlns="http://www.w3.org/2000/svg">
<g clip-path="url(#clip0_74_15)">
<path d="M1873.4 510C1864.5 510 1857.4 502.9 1857.4 494C1857.4 485.3 1864.5 478 1873.4 478C1882.1 478 1889.4 485.1 1889.4 494C1889.4 502.7 1882.1 510 1873.4 510ZM1873.4 481.1C1866.3 481.1 1860.5 486.9 1860.5 494C1860.5 501.1 1866.3 506.9 1873.4 506.9C1880.5 506.9 1886.3 501.1 1886.3 494C1886.3 486.9 1880.5 481.1 1873.4 481.1ZM1881.5 502.4H1877.8L1874.6 496.4H1870.4V502.4H1867V484.8H1875.4C1879.1 484.8 1881.4 487.2 1881.4 490.6C1881.4 493.2 1879.8 495.1 1877.7 495.9L1881.5 502.4ZM1875.2 493.2C1876.5 493.2 1877.8 492.4 1877.8 490.6C1877.8 488.5 1876.7 488 1875.2 488H1869.9V493.3H1875.2V493.2ZM202.7 476.4H243.7V588.1H314.9V623.9H202.7V476.4ZM357.3 550.5V550C357.3 507.7 391.5 473.2 437 473.2C482.5 473.2 516.1 507.1 516.1 549.4V549.9C516.1 592.2 481.9 626.7 436.4 626.7C390.9 626.7 357.3 592.8 357.3 550.5ZM474.5 550.5V550C474.5 528.7 459.3 510.3 436.6 510.3C414.3 510.3 399.3 528.4 399.3 549.7V550.2C399.3 571.5 414.5 589.9 436.9 589.9C459.5 589.9 474.5 571.8 474.5 550.5ZM566.3 559.2V476.4H607.8V558.4C607.8 579.7 618.6 589.7 634.9 589.7C651.2 589.7 662 580 662 559.5V476.4H703.5V558.2C703.5 605.8 676.4 626.6 634.4 626.6C592.6 626.5 566.3 605.4 566.3 559.2ZM766.1 476.4H822.9C875.5 476.4 906.2 506.6 906.2 549.2V549.7C906.2 592.3 875.2 623.8 822.1 623.8H766.1V476.4ZM823.6 587.6C848 587.6 864.3 574.2 864.3 550.3V549.8C864.3 526.1 848 512.5 823.6 512.5H807V587.4H823.6V587.6ZM965.6 476.4H1083.6V512.2H1006.3V537.4H1076.2V571.3H1006.3V623.9H965.6V476.4ZM1140.4 476.4H1181.1V588.1H1252.6V623.9H1140.3V476.4H1140.4ZM1359.4 475.3H1398.8L1461.6 623.8H1417.7L1406.9 597.5H1350.1L1339.6 623.8H1296.7L1359.4 475.3ZM1395.4 565.7L1379.1 523.9L1362.5 565.7H1395.4ZM1514.3 476.4H1584C1606.6 476.4 1622.1 482.2 1632.1 492.4C1640.8 500.8 1645.2 512.1 1645.2 526.8V527.3C1645.2 549.9 1633.1 564.9 1615 572.5L1650.2 624H1602.9L1573.2 579.3H1555.3V624H1514.3V476.4ZM1582.1 547.1C1596 547.1 1603.9 540.3 1603.9 529.7V529.2C1603.9 517.6 1595.5 511.8 1581.8 511.8H1555V547L1582.1 547.1ZM1704.1 476.4H1822.7V511.1H1744.6V533.4H1815.3V565.7H1744.6V589.1H1823.7V623.8H1704.1V476.4ZM113.3 567.8C107.5 580.7 95.4 589.9 79.6 589.9C57.3 589.9 42 571.2 42 550.2V549.7C42 528.4 57 510.3 79.3 510.3C96.1 510.3 109 520.6 114.3 534.7H157.4C150.6 499.5 119.5 473.4 79.6 473.4C34.2 473.5 0 507.9 0 550.2V550.7C0 593.1 33.7 627 79.1 627C118 627 148.5 601.8 156.4 568.1L113.3 567.8Z" fill="white"/>
<path d="M1774.3 241.1L1661.5 176.4L1642 168L1180.6 171.2V405.4H1774.2L1774.3 241.1Z" fill="white"/>
<path d="M1568.9 383.8C1574.4 364.9 1572.3 347.5 1563.1 334.6C1554.7 322.8 1540.5 315.9 1523.4 315.1L1199.8 310.9C1197.7 310.9 1195.9 309.8 1194.8 308.3C1193.7 306.7 1193.5 304.6 1194 302.5C1195.1 299.3 1198.2 297 1201.6 296.7L1528.1 292.5C1566.7 290.7 1608.8 259.4 1623.5 221L1642.2 172.4C1643 170.3 1643.3 168.2 1642.7 166.1C1621.8 71 1536.9 0 1435.4 0C1341.8 0 1262.4 60.5 1234 144.3C1215.6 130.6 1192.2 123.3 1167 125.6C1122 130.1 1086 166.1 1081.6 211C1080.5 222.6 1081.3 233.9 1084 244.4C1010.7 246.5 952 306.4 952 380.3C952 386.9 952.5 393.4 953.3 400C953.8 403.2 956.5 405.5 959.6 405.5H1556.9C1560.3 405.5 1563.5 403.1 1564.5 399.7L1568.9 383.8Z" fill="#F38020"/>
<path d="M1672 175.9C1669.1 175.9 1666 175.9 1663.1 176.2C1661 176.2 1659.2 177.8 1658.4 179.9L1645.8 223.8C1640.3 242.7 1642.4 260.1 1651.6 273C1660 284.8 1674.2 291.7 1691.3 292.5L1760.2 296.7C1762.3 296.7 1764.1 297.8 1765.2 299.3C1766.3 300.9 1766.5 303.2 1766 305.1C1764.9 308.3 1761.8 310.6 1758.4 310.9L1686.6 315.1C1647.7 316.9 1605.9 348.2 1591.2 386.6L1585.9 400C1584.8 402.6 1586.7 405.3 1589.6 405.3H1836C1838.9 405.3 1841.5 403.5 1842.3 400.6C1846.5 385.4 1848.9 369.3 1848.9 352.8C1848.9 255.3 1769.5 175.9 1672 175.9Z" fill="#FAAE40"/>
</g>
<defs>
<clipPath id="clip0_74_15">
<rect width="1889.4" height="627" fill="white"/>
</clipPath>
</defs>
</svg>
