<svg width="1890" height="627" viewBox="0 0 1890 627" fill="none" xmlns="http://www.w3.org/2000/svg">
<path d="M1230.68 425.413C1230.68 425.413 1229.7 419.513 1229.13 419.583L1123.49 429.909C1119.4 430.305 1115.58 432.152 1112.73 435.115C1109.89 438.078 1108.19 441.963 1107.96 446.066L1105.01 488.213L1023.25 494.113L1017.7 455.9C1017.11 451.796 1015.07 448.038 1011.95 445.307C1008.84 442.575 1004.84 441.05 1000.7 441.008H889.148C885.003 440.999 880.995 442.487 877.859 445.197C874.723 447.907 872.67 451.657 872.078 455.759L866.529 494.113L784.764 488.213L781.814 446.066C781.581 441.963 779.888 438.078 777.041 435.115C774.193 432.152 770.38 430.305 766.289 429.909L660.571 419.583C660.009 419.513 659.657 425.413 659.095 425.413L658.955 448.594L748.517 463.205L751.397 505.704C751.686 509.876 753.46 513.808 756.398 516.785C759.337 519.762 763.244 521.587 767.413 521.93L880.016 530.008H881.281C885.422 529.952 889.407 528.422 892.523 525.693C895.638 522.964 897.679 519.214 898.28 515.116L903.97 475.849H985.805L991.495 515.116C992.098 519.226 994.149 522.985 997.279 525.716C1000.41 528.446 1004.41 529.969 1008.56 530.008H1009.76L1122.43 521.93C1126.59 521.571 1130.48 519.739 1133.4 516.763C1136.33 513.788 1138.09 509.865 1138.38 505.704L1141.33 463.205L1230.82 448.524L1230.68 425.413Z" fill="white"/>
<path d="M659.095 253.032V425.554H660.008L766.219 435.739C768.906 435.997 771.416 437.195 773.305 439.123C775.195 441.051 776.342 443.584 776.545 446.276L779.776 492.989L872.43 499.592L878.822 456.461C879.225 453.768 880.581 451.309 882.644 449.53C884.706 447.751 887.338 446.771 890.061 446.768H1001.05C1001.05 446.768 1011.44 451.474 1012.29 457.094L1018.61 500.154L1110.91 493.621L1114.21 446.908C1114.39 444.218 1115.51 441.678 1117.39 439.746C1119.28 437.814 1121.78 436.617 1124.47 436.371L1230.19 426.116H1230.82V412.418H1232.72V253.032H1231.59C1231.59 253.032 1258.57 216.856 1271 196.765C1254.49 168.667 1234.26 143.52 1212.63 120.269C1192.64 130.317 1173.29 141.578 1154.67 153.986C1145.47 144.784 1135.08 137.338 1124.89 129.471C1114.7 121.603 1103.61 115.562 1092.93 108.678C1095.99 84.978 1097.77 61.1305 1098.27 37.2389C1070.66 23.3304 1041.23 14.1283 1011.44 7.52527C999.518 27.8077 988.753 48.7511 979.202 70.2541C968.033 68.4277 956.724 67.7253 944.009 67.5848H945.906V66.9526C934.543 66.9865 923.199 67.9025 911.977 69.6922C902.392 48.1576 891.58 27.1901 879.595 6.89307C849.74 13.4961 820.167 22.7685 792.491 36.6067C793.123 60.9818 794.668 84.3734 797.9 108.116C787.152 114.93 775.843 120.831 765.798 128.909C755.752 136.987 745.145 144.222 735.873 153.354C717.156 140.996 697.735 129.738 677.71 119.636C656.005 142.958 635.704 168.035 619.126 196.204C631.268 215.85 644.47 234.821 658.674 253.032H659.095ZM1135.5 458.077L1132.2 504.86C1132.02 507.584 1130.86 510.151 1128.93 512.087C1127.01 514.024 1124.45 515.2 1121.73 515.397L1009.48 523.405H1008.63C1005.92 523.414 1003.28 522.436 1001.23 520.654C999.177 518.871 997.84 516.405 997.466 513.711L991.003 470.089H899.404L893.011 513.711C892.578 516.547 891.096 519.116 888.858 520.911C886.621 522.706 883.791 523.596 880.929 523.405L768.678 515.397C765.955 515.2 763.396 514.024 761.472 512.087C759.549 510.151 758.39 507.584 758.211 504.86L754.91 458.077L660.149 448.945C660.219 459.131 660.36 470.3 660.36 472.548C660.36 572.577 787.293 620.694 944.993 621.256H945.414C1103.11 620.694 1230.05 572.577 1230.05 472.548C1230.05 470.229 1230.19 459.131 1230.19 448.945L1135.5 458.077Z" fill="#478CBF"/>
<path d="M859.013 323.628C859.027 336.246 855.298 348.585 848.298 359.083C841.297 369.581 831.341 377.767 819.687 382.606C808.034 387.444 795.207 388.717 782.83 386.264C770.453 383.811 759.081 377.742 750.154 368.824C741.227 359.907 735.145 348.542 732.678 336.168C730.212 323.793 731.471 310.965 736.296 299.306C741.122 287.647 749.297 277.682 759.787 270.67C770.278 263.659 782.612 259.916 795.23 259.916C812.134 259.916 828.347 266.626 840.306 278.573C852.266 290.519 858.994 306.724 859.013 323.628ZM944.922 392.82C933.683 392.82 924.622 384.531 924.622 374.275V316.112C924.622 305.927 933.683 297.638 944.922 297.638C956.162 297.638 965.293 305.927 965.293 316.112V374.275C965.293 384.531 956.162 392.82 944.922 392.82ZM1031.39 323.628C1031.38 336.246 1035.11 348.585 1042.11 359.083C1049.11 369.581 1059.07 377.767 1070.72 382.606C1082.37 387.444 1095.2 388.717 1107.58 386.264C1119.95 383.811 1131.33 377.742 1140.25 368.824C1149.18 359.907 1155.26 348.542 1157.73 336.168C1160.2 323.793 1158.94 310.965 1154.11 299.306C1149.29 287.647 1141.11 277.682 1130.62 270.67C1120.13 263.659 1107.79 259.916 1095.18 259.916C1078.27 259.916 1062.06 266.626 1050.1 278.573C1038.14 290.519 1031.41 306.724 1031.39 323.628Z" fill="white"/>
<path d="M1046.78 327.421C1046.78 335.785 1049.26 343.96 1053.9 350.915C1058.55 357.869 1065.16 363.289 1072.88 366.489C1080.61 369.69 1089.11 370.528 1097.32 368.896C1105.52 367.264 1113.05 363.237 1118.97 357.323C1124.88 351.409 1128.91 343.874 1130.54 335.671C1132.17 327.468 1131.33 318.965 1128.13 311.238C1124.93 303.511 1119.51 296.907 1112.56 292.26C1105.6 287.613 1097.43 285.133 1089.07 285.133C1083.51 285.124 1078.01 286.212 1072.87 288.333C1067.74 290.455 1063.07 293.57 1059.14 297.498C1055.21 301.427 1052.1 306.092 1049.98 311.227C1047.86 316.362 1046.77 321.865 1046.78 327.421ZM843.629 327.421C843.629 335.785 841.149 343.96 836.502 350.915C831.856 357.869 825.251 363.289 817.524 366.489C809.797 369.69 801.294 370.528 793.091 368.896C784.889 367.264 777.354 363.237 771.44 357.323C765.526 351.409 761.498 343.874 759.866 335.671C758.235 327.468 759.072 318.965 762.273 311.238C765.473 303.511 770.894 296.907 777.848 292.26C784.802 287.613 792.978 285.133 801.341 285.133C806.897 285.124 812.4 286.212 817.535 288.333C822.67 290.455 827.335 293.57 831.264 297.498C835.192 301.427 838.307 306.092 840.429 311.227C842.551 316.362 843.638 321.865 843.629 327.421Z" fill="#414042"/>
</svg>
