<svg width="1890" height="627" viewBox="0 0 1890 627" fill="none" xmlns="http://www.w3.org/2000/svg">
<path d="M942.863 207C869.138 207 815.981 255.15 815.981 327.375C815.981 399.6 875.816 447.75 949.541 447.75C994.083 447.75 1033.35 430.095 1057.66 400.336L1006.57 370.777C993.081 385.556 972.58 394.183 949.541 394.183C917.553 394.183 890.374 377.464 880.29 350.714H1067.41C1068.88 343.224 1069.74 335.467 1069.74 327.308C1069.74 255.15 1016.59 207 942.863 207ZM879.689 303.969C888.037 277.286 910.875 260.5 942.796 260.5C974.784 260.5 997.622 277.286 1005.9 303.969H879.689ZM1661.95 207C1588.22 207 1535.07 255.15 1535.07 327.375C1535.07 399.6 1594.9 447.75 1668.63 447.75C1713.17 447.75 1752.44 430.095 1776.74 400.336L1725.66 370.777C1712.17 385.556 1691.67 394.183 1668.63 394.183C1636.64 394.183 1609.46 377.464 1599.38 350.714H1786.49C1787.96 343.224 1788.83 335.467 1788.83 327.308C1788.83 255.15 1735.67 207 1661.95 207ZM1598.84 303.969C1607.19 277.286 1630.03 260.5 1661.95 260.5C1693.94 260.5 1716.77 277.286 1725.06 303.969H1598.84ZM1338.2 327.375C1338.2 367.5 1364.38 394.25 1404.98 394.25C1432.49 394.25 1453.13 381.744 1463.75 361.348L1515.03 390.973C1493.8 426.417 1454 447.75 1404.98 447.75C1331.19 447.75 1278.1 399.6 1278.1 327.375C1278.1 255.15 1331.25 207 1404.98 207C1454 207 1493.73 228.333 1515.03 263.777L1463.75 293.403C1453.13 273.006 1432.49 260.5 1404.98 260.5C1364.44 260.5 1338.2 287.25 1338.2 327.375ZM1889 133.438V441.062H1828.9V133.438H1889ZM247.752 100L494.503 528H1L247.752 100ZM864.664 133.438L679.617 454.438L494.57 133.438H563.954L679.617 334.062L795.28 133.438H864.664ZM1258.06 213.688V278.489C1251.39 276.55 1244.31 275.213 1236.69 275.213C1197.9 275.213 1169.91 301.963 1169.91 342.088V441.062H1109.81V213.688H1169.91V275.213C1169.91 241.24 1209.38 213.688 1258.06 213.688Z" fill="white"/>
</svg>
